<?xml version="1.0" encoding="UTF-8"?>
<svg version="1.1" viewBox="0 0 2048 395" width="1280" height="1280" xmlns="http://www.w3.org/2000/svg">
<path transform="translate(0)" d="m0 0h2048v395h-2048z" fill="#212122"/>
<path transform="translate(95,68)" d="m0 0h22l17 3 10 4 6 7 1 4 1 30 83 1 5 4 1 2 1 13v14h13l6 2 1 2 1 22 78-42 10-6 14-6 5-1h14l1 1v179l-1 1h-16l-12-5-13-8-24-12-22-12-26-14-8-4v15l-1 7-3 3-16 1-2 29-4 3-26 1h-88l-34-1-17-3-16-8-4-5-1-190 2-10 7-8 9-6 15-5z" fill="#D9493E"/>
<path transform="translate(1e3 125)" d="m0 0h8l9 4 3 4-1 5-4 3 1 7 17 45 2 5 2 1 1-6 11-30 6-17v-5l-5-3 2-6 6-5 4-1h8l10 3 6 3 11-2 8 1 5 4 3 9-9 4-3 6-1 22v45l1 33 3 5 10 7-5 6-10 3-11-2-11 4-9-2-5-5-2-7 2-2 9-3 3-6 1-5v-79h-2l-1 5-16 42-8 19-7 9-8 7-6 3-3-1-2-10-3-12-8-20-15-39-2-3-1 22v54l3 11 4 4 7 1 1 1v6l-5 6-4 2h-12l-5-2h-17l-6-3-3-2 1-4 9-7 3-8v-90l-2-10-1-2-9-4 1-7 5-5 9-2 11 2 12-5z" fill="#FEFEFE"/>
<path transform="translate(1562,124)" d="m0 0h26l13 4 10 7 7 8 4 9v16l-3 12-6 10-8 8-2 4 1 9 8 18 10 18 7 8 4 2h13l1 1v6l-4 6-5 4-2 1h-18l-6 2h-10l-8-4-4-4-1-5 5-3 4-1-1-6-15-34-4-5-7-2-13-1-1 9v29l3 5 7 2h8l1 4-4 8-7 6h-12l-11-3-5 3h-13l-10-5-5-4-2-5 13-4 5-5 1-2 1-10v-38l-1-57-2-2-14-2 1-5 4-6 5-4 2-1h10l8 3 8-1z" fill="#FEFEFE"/>
<path transform="translate(1458,123)" d="m0 0 4 1 1 2v11l-4 8-3 3-1 14-4 5-2 1h-11l1-10v-2l-11-3h-31l-5 2-2 6v26l10 1 12-3 4-4 3-7 5 1 4 6 1 9-3 9 4 7 1 7-4 8-7 6h-4l-3-10-6-3h-16l-1 1v32l3 3 12 2h14l13-2 10-6 5-7 3-8 4 1 5 6 1 2v19l8 6 4 6v10l-2 3-9-3-8-3h-63l-11-2h-6l-7 4-9 1-13-3-3-2 1-3 12-6 4-9 1-6 1-56v-25l-1-18-3-6-5-3-9-3 1-4 5-5 5-3 9-1 9 3 7 1 9-2h25l31 1 9-2z" fill="#FEFEFE"/>
<path transform="translate(1944,123)" d="m0 0 5 1 1 2v11l-3 6-4 5-1 12-3 5-3 3h-11v-11l-5-3-4-1h-33l-5 3-1 4v14l1 13 8 1 13-3 4-5 3-6 5 1 3 4 1 3v10l-2 4 1 5 3 5v10l-6 8-4 3h-4l-3-11-6-2h-17l-1 3v21l1 9 2 3 11 2h17l12-2 8-5 3-1 2-4 5-11 4 1 4 4 2 6v17l9 7 3 5v9l-2 4-9-3-8-3h-63l-12-2h-6l-6 4-9 1-13-3-3-2 2-4 9-4 4-5 2-6 1-22 1-39v-23l-2-22-3-5-10-4-3-1 1-4 5-5 8-4 11 1 6 3 14-2h23l33 1 8-2z" fill="#FEFEFE"/>
<path transform="translate(1195,131)" d="m0 0h8l6 3 3 4 1 9-7 2-3 1-1 6 5 16 19 49 5 13 2-2 15-39 9-24 4-16-1-4-13-1 1-6 4-5 9-5 7-1 9 3 5-1 6-2h13l5 3 3 4 1 6-9 4-6 4-6 8-10 23-15 37-11 27-4 13 1 8 5 5 6 4-1 5-6 2-10-1-9-4-5-1-8 6-10 3-6-1-1-3 6-9 1-7-6-18-10-25-13-40-7-20-5-9-5-3h-12l-1-1 1-8 5-7 8-4h7l6 2 6-1z" fill="#FEFEFE"/>
<path transform="translate(1722,128)" d="m0 0h15l12 3 16 8h6l6-6h5l1 1v14l-5 8-5 3h-2l-1 10-5 6-2 1h-7l-1-4 1-9-5-5-9-4-9-2h-7l-8 4-5 8v7l5 5 10 5 27 10 15 8 11 10 6 12 2 8v13l-3 12-6 11-10 8-13 6-12 2-13-1-15-6-14-8-7 2-5 9-4-2-3-5-1-4v-8l4-8 7-6 1-7 3-9 7-6h5l2 15 4 6 8 6 11 5h10l10-5 5-8v-11l-6-9-10-6-13-5-24-7-9-5-7-7-4-8-2-8v-12l4-12 6-9 9-8 12-5z" fill="#FEFEFE"/>
<path transform="translate(679,125)" d="m0 0h4l1 7-5 8-7 6-4 13-6 7-4 2-4-1v-10l-4-4-8-2h-10l-21 2v33l5 1h10l8-4h2l2-7 3-2 4 2 1 2v14l-2 4 4 8v10l-5 8-6 4-3-1-1-6v-5l-3-2h-10l-7 2-2 13 1 17 2 12 4 6 11 6 2 2-1 5-6 4-10 1-10-4-6-4-4 2-9 6-7 2h-9l-1-4 8-7 4-8 2-19 1-22v-30l-1-31-1-15-2-3-14-2-1-4 6-7 9-4 10 1 5 2 9-1 11-2h18l23 2h13z" fill="#FEFEFE"/>
<path transform="translate(832,130)" d="m0 0 9 1 6 1 5-2h11l5 3 4 5 1 3v7l-11 2-3 1v95l3 5 6 2h17l10-4 5-6 3-12 2-1 5 3 5 6 1 3 1 11 8 7 2 5v10l-3 5-6-2-11-4-13 1-19 2h-10l-16-4-4-2-12 3-11-1-4-4-1-6 8-4 3-5 1-5 1-26v-67l-3-5-10-3 2-9 9-8z" fill="#FEFEFE"/>
<path transform="translate(422,130)" d="m0 0 1 4-6 41v4l19-39 3-4-2 9-13 34v3l12-16 13-16 5-5-2 5-12 19-10 16-1 2 8-7 14-12 14-11 3-2-2 4-32 32 5-2 29-15 7-4 2 1-11 8-27 18v1l41-12 4 1-43 17-1 2 13-2 18-1h15v1l-28 5-16 3 40 6 9 2v1l-33-1-18-1v2l9 2 28 10 10 4-3 1-42-11h-3l20 12 21 14-2 1-16-8-17-8-7-4-1 1 13 13 8 7 11 11h-3l-14-11-13-10-9-7 7 11 10 14 8 12v3l-12-13-18-22 3 9 14 34 1 4-3-3-17-32-4-8v-2h-2l4 20 5 26-1 4-6-18-7-25v-5h-2l-1 20-2 27-2-1-2-113v-44h1l4 32 1 10 3-9 9-36z" fill="#FDFDFD"/>
<path transform="translate(757,129)" d="m0 0 8 1 6 3 4 5 1 6-4 3-7 3-2 6-2 40v53l3 7 1 1h14l-1 8-4 6-3 3-3 1h-11l-9-4-9 3h-8l-9-3-7-7 1-2 13-4 4-5 2-10 1-31v-51l-2-11-3-3-12-1-1-5 6-7 6-3 6-1 10 2z" fill="#FEFEFE"/>
<path transform="translate(95,68)" d="m0 0h22l17 3 10 4 6 7 1 4 1 31h-2l-1-23-1 1-10 1h-24l-13-1v22l-26-3-10-3-10-6-2-3-1 9h-1v-12l2-10 7-8 9-6 15-5z" fill="#AA2B22"/>
<path transform="translate(1566,147)" d="m0 0h15l9 3 5 6 1 2v12l-7 8-10 7-9 4h-9l-3-4-1-19v-17z" fill="#232122"/>
<path transform="translate(262,200)" d="m0 0 2 3 3 21 3 6 8 7 19 14 14 11 17 13 13 10 4 4-6-2-20-10-22-12-26-14-8-4v15h-1z" fill="#AA2B22"/>
<path transform="translate(157,268)" d="m0 0h28v23l-26 1-2-1z" fill="#FEFEFE"/>
<path transform="translate(115,268)" d="m0 0h27v23l-15 1h-11l-2-5v-18z" fill="#FEFEFE"/>
<path transform="translate(198,268)" d="m0 0h27v23l-25 1-3-3v-20z" fill="#FEFEFE"/>
<path transform="translate(157,137)" d="m0 0h28v23h-28z" fill="#FEFEFE"/>
<path transform="translate(72,268)" d="m0 0h27l1 1v22h-28z" fill="#FEFEFE"/>
<path transform="translate(197,137)" d="m0 0h28v23h-27l-1-1z" fill="#FEFEFE"/>
<path transform="translate(72,137)" d="m0 0h27l1 1v21l-1 1h-27z" fill="#FEFEFE"/>
<path transform="translate(115,137)" d="m0 0h27v23h-27l-1-7v-15z" fill="#FEFEFE"/>
<path transform="translate(242,165)" d="m0 0h1l5 53 5 46v8l-11 1z" fill="#AA2B22"/>
</svg>
